<svg id="Capa_1" enable-background="new 0 0 497.435 497.435" height="512" viewBox="0 0 497.435 497.435" width="512" xmlns="http://www.w3.org/2000/svg"><g><path d="m467.374 0h-30l2.685 327.429 30.001 43.136c2.718 3.885 7.215 6.435 12.314 6.435 8.284 0 15-6.715 15-15v-332c0-16.569-13.431-30-30-30z" fill="#3a6fd8"/><path d="m437.374 0h-332c-16.569 0-30 13.431-30 30v242c0 16.569 13.431 30 30 30h317l17.685 25.429c8.387 12.059 27.315 6.124 27.315-8.565v-288.864c0-16.569-13.431-30-30-30z" fill="#3b88f5"/><path d="m362.06 422.435h30c16.569 0 30-13.431 30-30v-90.435l-60-75z" fill="#8ae7ff"/><path d="m75.374 120.435h-45.314c-16.569 0-30 13.431-30 30v332c0 8.285 6.716 15 15 15 5.099 0 9.596-2.549 12.314-6.435l47.686-68.565h287c16.569 0 30-13.432 30-30v-90.435z" fill="#bdf2ff"/><path d="m392.06 120.435h-30l30 181.565h30v-151.565c0-16.569-13.431-30-30-30z" fill="#24c0ff"/><path d="m362.06 120.435h-286.686v151.565c0 16.569 13.431 30 30 30h286.686v-151.565c0-16.569-13.431-30-30-30z" fill="#47d4ff"/><g fill="#3a6fd8"><circle cx="248.874" cy="211" r="15"/><circle cx="188.874" cy="211" r="15"/><circle cx="308.874" cy="211" r="15"/></g></g></svg>